<?xml version="1.0" encoding="utf-8"?>
<!-- Generator: Adobe Illustrator 24.3.0, SVG Export Plug-In . SVG Version: 6.00 Build 0)  -->
<svg version="1.1" id="Layer_1" xmlns="http://www.w3.org/2000/svg" xmlns:xlink="http://www.w3.org/1999/xlink" x="0px" y="0px"
	 viewBox="0 0 50 50" style="enable-background:new 0 0 50 50;" xml:space="preserve">
<style type="text/css">
	.st0{fill:#046EBC;}
	.st1{fill:none;stroke:#046EBC;stroke-width:2.5;stroke-miterlimit:10;}
	.st2{fill-rule:evenodd;clip-rule:evenodd;fill:#046EBC;}
	.st3{fill:#F9F9FA;}
	.st4{fill:#FFFFFF;}
	.st5{fill:#136FB7;}
</style>
<g>
	<path class="st5" d="M18.31,31.62c-10.7,1.77-19.86-7.4-18.09-18.09C1.29,7.05,6.52,1.82,13,0.75c10.7-1.77,19.86,7.39,18.09,18.09
		C30.02,25.33,24.79,30.55,18.31,31.62z M17.73,4.11C9.37,2.73,2.2,9.9,3.58,18.26c0.84,5.07,4.93,9.16,10,10
		c8.37,1.38,15.54-5.78,14.15-14.15C26.89,9.04,22.8,4.95,17.73,4.11z"/>
</g>
<g>
	<path class="st5" d="M14.93,22.94c-0.02,0-0.04,0-0.06,0c-0.53-0.02-0.99-0.36-1.16-0.85l-1.85-5.3l-0.52,0.78
		c-0.24,0.36-0.65,0.58-1.08,0.58H6.43c-0.6,0-1.09-0.49-1.09-1.09v0c0-0.6,0.49-1.09,1.09-1.09h3.36l1.25-1.86
		c0.28-0.41,0.76-0.62,1.25-0.56c0.49,0.06,0.89,0.39,1.05,0.84l1.7,4.87l3-6.68c0.2-0.46,0.66-0.75,1.18-0.75c0.01,0,0.01,0,0.02,0
		c0.52,0.01,0.98,0.31,1.17,0.79l1.62,3.9h1.9c0.6,0,1.09,0.49,1.09,1.09v0c0,0.6-0.49,1.09-1.09,1.09h-2.49
		c-0.53,0-1-0.31-1.19-0.79l-1.06-2.56l-3.08,6.83C15.9,22.65,15.45,22.94,14.93,22.94z M15.77,21.37L15.77,21.37
		C15.77,21.37,15.77,21.37,15.77,21.37z M22.26,17.08L22.26,17.08C22.26,17.09,22.26,17.08,22.26,17.08z M11.28,15.11
		C11.28,15.11,11.28,15.11,11.28,15.11L11.28,15.11z M20.03,13.48L20.03,13.48C20.03,13.48,20.03,13.48,20.03,13.48z M18.4,13.46
		C18.4,13.46,18.4,13.46,18.4,13.46L18.4,13.46z"/>
</g>
<g>
	<path class="st5" d="M47.52,45.25l-0.88-0.88l-2.36,2.46l0.83,0.83c0.67,0.67,1.74,0.67,2.41,0C48.19,47,48.19,45.92,47.52,45.25z"
		/>
	<polygon class="st5" points="39.87,42.43 43.04,45.59 45.4,43.13 42.23,39.96 	"/>
	<path class="st5" d="M40.99,38.72L28.12,25.85c-0.67-0.67-1.75-0.67-2.41,0c-0.67,0.67-0.67,1.75,0,2.41l12.92,12.92L40.99,38.72z"
		/>
</g>
</svg>
