<?xml version="1.0" encoding="utf-8"?>
<!-- Generator: Adobe Illustrator 24.3.0, SVG Export Plug-In . SVG Version: 6.00 Build 0)  -->
<svg version="1.1" id="Layer_1" xmlns="http://www.w3.org/2000/svg" xmlns:xlink="http://www.w3.org/1999/xlink" x="0px" y="0px"
	 viewBox="0 0 50 50" style="enable-background:new 0 0 50 50;" xml:space="preserve">
<style type="text/css">
	.st0{fill:#046EBC;}
	.st1{fill:none;stroke:#046EBC;stroke-width:2.5;stroke-miterlimit:10;}
	.st2{fill-rule:evenodd;clip-rule:evenodd;fill:#046EBC;}
	.st3{fill:#F9F9FA;}
	.st4{fill:#FFFFFF;}
	.st5{fill:#136FB7;}
</style>
<g>
	<path class="st0" d="M31,15.78c0.96-2.77,3.59-4.77,6.68-4.77c3.9,0,7.07,3.17,7.07,7.07s-3.17,7.07-7.07,7.07
		c-1.26,0-2.44-0.33-3.46-0.91c-0.33,3.28-2.22,6.1-4.92,7.69c0.41,0.19,0.8,0.4,1.19,0.63c1.65-2.31,4.35-3.82,7.35-3.82
		c4.12,0,7.67,2.83,8.72,6.69H33.76c0.73,0.92,1.33,1.94,1.78,3.05H50l-0.13-1.64c-0.35-4.49-3.18-8.27-7.06-10.05
		c2.98-1.76,4.99-5,4.99-8.71c0-5.58-4.54-10.12-10.12-10.12c-4.15,0-7.71,2.51-9.28,6.09C29.36,14.48,30.23,15.07,31,15.78z"/>
</g>
<g>
	<path class="st0" d="M14.89,35.42H3.55c1.04-3.86,4.6-6.69,8.72-6.69c1.53,0,2.98,0.39,4.26,1.08c-1.2-1.39-2.04-3.09-2.34-4.98
		c-0.65,0.2-1.35,0.31-2.07,0.31c-3.9,0-7.07-3.17-7.07-7.07s3.17-7.07,7.07-7.07c2.75,0,5.13,1.58,6.3,3.88
		c0.83-0.58,1.75-1.03,2.74-1.34c-1.66-3.31-5.09-5.6-9.04-5.6C6.54,7.95,2,12.49,2,18.07c0,3.76,2.07,7.04,5.12,8.79
		c-3.8,1.81-6.55,5.55-6.89,9.97L0.1,38.48h13C13.55,37.36,14.16,36.34,14.89,35.42z"/>
</g>
<g>
	<rect x="24.55" y="40.56" class="st0" width="4.48" height="3.05"/>
	<path class="st0" d="M22.79,40.56H15.6c1.04-3.86,4.6-6.69,8.72-6.69s7.67,2.83,8.72,6.69h-2.24v3.05h5.7l-0.13-1.64
		c-0.35-4.49-3.18-8.27-7.06-10.05c2.98-1.76,4.99-5,4.99-8.71c0-5.58-4.54-10.12-10.12-10.12s-10.12,4.54-10.12,10.12
		c0,3.76,2.07,7.04,5.12,8.79c-3.8,1.81-6.55,5.55-6.89,9.97l-0.13,1.64h10.65V40.56z M17.09,23.21c0-3.9,3.17-7.07,7.07-7.07
		s7.07,3.17,7.07,7.07s-3.17,7.07-7.07,7.07S17.09,27.11,17.09,23.21z"/>
</g>
</svg>
