<?xml version="1.0" encoding="utf-8"?>
<!-- Generator: Adobe Illustrator 24.3.0, SVG Export Plug-In . SVG Version: 6.00 Build 0)  -->
<svg version="1.1" id="Layer_1" xmlns="http://www.w3.org/2000/svg" xmlns:xlink="http://www.w3.org/1999/xlink" x="0px" y="0px"
	 viewBox="0 0 50 50" style="enable-background:new 0 0 50 50;" xml:space="preserve">
<style type="text/css">
	.st0{fill:#046EBC;}
	.st1{fill:none;stroke:#046EBC;stroke-width:2.5;stroke-miterlimit:10;}
	.st2{fill-rule:evenodd;clip-rule:evenodd;fill:#046EBC;}
	.st3{fill:#F9F9FA;}
	.st4{fill:#FFFFFF;}
	.st5{fill:#136FB7;}
</style>
<g>
	<path class="st0" d="M26.15,49.47H0.28V11.21c0-2.44,1.99-4.43,4.43-4.43h17c2.45,0,4.43,1.99,4.43,4.43V49.47z M2.78,46.97h20.87
		V11.21c0-1.07-0.87-1.93-1.93-1.93h-17c-1.07,0-1.93,0.87-1.93,1.93V46.97z"/>
</g>
<g>
	<path class="st0" d="M11.04,19.22H6.21c-1.03,0-1.87-0.84-1.87-1.87v-4.83c0-1.03,0.84-1.87,1.87-1.87h4.83
		c1.03,0,1.87,0.84,1.87,1.87v4.83C12.9,18.38,12.07,19.22,11.04,19.22z M6.84,16.72h3.56v-3.56H6.84V16.72z"/>
</g>
<g>
	<path class="st0" d="M20.23,19.22H15.4c-1.03,0-1.87-0.84-1.87-1.87v-4.83c0-1.03,0.84-1.87,1.87-1.87h4.83
		c1.03,0,1.87,0.84,1.87,1.87v4.83C22.1,18.38,21.26,19.22,20.23,19.22z M16.03,16.72h3.56v-3.56h-3.56V16.72z"/>
</g>
<g>
	<path class="st0" d="M11.04,28.87H6.21c-1.03,0-1.87-0.84-1.87-1.87v-4.83c0-1.03,0.84-1.87,1.87-1.87h4.83
		c1.03,0,1.87,0.84,1.87,1.87V27C12.9,28.03,12.07,28.87,11.04,28.87z M6.84,26.37h3.56V22.8H6.84V26.37z"/>
</g>
<g>
	<path class="st0" d="M20.23,28.87H15.4c-1.03,0-1.87-0.84-1.87-1.87v-4.83c0-1.03,0.84-1.87,1.87-1.87h4.83
		c1.03,0,1.87,0.84,1.87,1.87V27C22.1,28.03,21.26,28.87,20.23,28.87z M16.03,26.37h3.56V22.8h-3.56V26.37z"/>
</g>
<g>
	<rect x="37.27" y="46.97" class="st0" width="4.48" height="2.5"/>
	<path class="st0" d="M45.58,16.71H28.09c-2.45,0-4.43,1.99-4.43,4.43v28.32h11.86v-2.5h-9.36V21.15c0-1.07,0.87-1.93,1.93-1.93
		h17.49c1.07,0,1.93,0.87,1.93,1.93v25.82h-4.01v2.5h6.51V21.15C50.02,18.7,48.03,16.71,45.58,16.71z"/>
</g>
<g>
	<rect x="37.27" y="47.06" class="st5" width="4.48" height="2.31"/>
</g>
</svg>
