<?xml version="1.0" encoding="utf-8"?>
<!-- Generator: Adobe Illustrator 24.3.0, SVG Export Plug-In . SVG Version: 6.00 Build 0)  -->
<svg version="1.1" id="Layer_1" xmlns="http://www.w3.org/2000/svg" xmlns:xlink="http://www.w3.org/1999/xlink" x="0px" y="0px"
	 viewBox="0 0 50 50" style="enable-background:new 0 0 50 50;" xml:space="preserve">
<style type="text/css">
	.st0{fill:#046EBC;}
	.st1{fill:none;stroke:#046EBC;stroke-width:2.5;stroke-miterlimit:10;}
	.st2{fill-rule:evenodd;clip-rule:evenodd;fill:#046EBC;}
	.st3{fill:#F9F9FA;}
	.st4{fill:#FFFFFF;}
	.st5{fill:#136FB7;}
</style>
<path class="st1" d="M23.54,1.84L6.11,15.72c-1.32,1.05-0.39,2.86,1.49,2.86h34.82c1.87,0,2.81-1.8,1.49-2.86L26.51,1.84
	C25.69,1.18,24.36,1.18,23.54,1.84z"/>
<g>
	<path class="st1" d="M13.64,39.16H9.75c-0.78,0-1.4-0.63-1.4-1.4V24.42c0-0.78,0.63-1.4,1.4-1.4h3.89c0.78,0,1.4,0.63,1.4,1.4
		v13.34C15.05,38.53,14.42,39.16,13.64,39.16z"/>
	<path class="st1" d="M26.95,39.16h-3.89c-0.78,0-1.4-0.63-1.4-1.4V24.42c0-0.78,0.63-1.4,1.4-1.4h3.89c0.78,0,1.4,0.63,1.4,1.4
		v13.34C28.35,38.53,27.72,39.16,26.95,39.16z"/>
	<path class="st1" d="M40.25,39.16h-3.89c-0.78,0-1.4-0.63-1.4-1.4V24.42c0-0.78,0.63-1.4,1.4-1.4h3.89c0.78,0,1.4,0.63,1.4,1.4
		v13.34C41.65,38.53,41.02,39.16,40.25,39.16z"/>
</g>
<g>
	<path class="st0" d="M24.72,6.53h0.85v0.7c0.69,0.07,1.29,0.33,1.79,0.79l-0.94,1.17c-0.34-0.29-0.63-0.47-0.86-0.54v1.49
		c1.31,0.4,1.96,1.14,1.96,2.21c0,0.54-0.17,1-0.5,1.37c-0.33,0.37-0.82,0.61-1.47,0.73v0.89h-0.84v-0.89h-0.14
		c-0.32,0-0.68-0.09-1.11-0.27c-0.42-0.18-0.75-0.41-0.98-0.68l0.9-1.13c0.38,0.4,0.82,0.64,1.33,0.74V11.4
		c-0.62-0.16-1.1-0.43-1.43-0.82c-0.33-0.39-0.49-0.84-0.49-1.36c0-0.55,0.16-1.01,0.48-1.38c0.32-0.38,0.8-0.58,1.45-0.61V6.53z
		 M24.71,9.88V8.61c-0.32,0.11-0.48,0.31-0.48,0.61C24.23,9.55,24.39,9.77,24.71,9.88z M25.56,11.7v1.34
		c0.35-0.09,0.53-0.31,0.53-0.66C26.09,12.05,25.91,11.83,25.56,11.7z"/>
</g>
<g>
	<rect x="34.31" y="47.33" class="st0" width="4.48" height="2.5"/>
	<path class="st0" d="M43.33,42.35H6.67c-1.46,0-2.65,1.19-2.65,2.65v2.19c0,1.46,1.19,2.65,2.65,2.65h25.88v-2.5H6.67
		c-0.08,0-0.15-0.07-0.15-0.15V45c0-0.08,0.07-0.15,0.15-0.15h36.65c0.08,0,0.15,0.07,0.15,0.15v2.19c0,0.08-0.07,0.15-0.15,0.15
		h-2.77v2.5h2.77c1.46,0,2.65-1.19,2.65-2.65V45C45.97,43.54,44.78,42.35,43.33,42.35z"/>
</g>
</svg>
