<?xml version="1.0" encoding="utf-8"?>
<!-- Generator: Adobe Illustrator 24.3.0, SVG Export Plug-In . SVG Version: 6.00 Build 0)  -->
<svg version="1.1" id="Layer_1" xmlns="http://www.w3.org/2000/svg" xmlns:xlink="http://www.w3.org/1999/xlink" x="0px" y="0px"
	 viewBox="0 0 50 50" style="enable-background:new 0 0 50 50;" xml:space="preserve">
<style type="text/css">
	.st0{fill:#046EBC;}
	.st1{fill:none;stroke:#046EBC;stroke-width:2.5;stroke-miterlimit:10;}
	.st2{fill-rule:evenodd;clip-rule:evenodd;fill:#046EBC;}
	.st3{fill:#F9F9FA;}
	.st4{fill:#FFFFFF;}
	.st5{fill:#136FB7;}
</style>
<g>
	<path class="st0" d="M44.13,10.94C40.3,5.9,35.2,2.86,28.96,1.75c-0.81-0.14-1.64-0.22-2.46-0.33c-1,0-2.01,0-3.01,0
		c-0.88,0.12-1.77,0.21-2.64,0.37c-5.53,0.98-10.16,3.6-13.89,7.79c-3.22,3.62-5.13,7.85-5.82,12.64c-0.04,0.27-0.07,0.54-0.1,0.8
		l3.09-0.42c0.37-2.62,1.19-4.95,2.15-6.7c2.97,0.91,5.89,1.82,8.87,2.74c-0.93,4.53-0.93,9.19,0,13.73
		c-2.97,0.91-5.89,1.8-8.89,2.72c-0.74-1.4-1.29-2.91-1.68-4.48L1.6,31.02c1.24,5.27,4,9.66,8.24,13.15
		c3.47,2.85,7.45,4.59,11.9,5.17c6.56,0.85,12.54-0.7,17.81-4.71c4.86-3.71,7.94-8.6,9.06-14.62C49.92,23.01,48.42,16.6,44.13,10.94
		z M36.13,7.65c2.31,1.44,4.27,3.27,5.9,5.51c-2.59,1.04-5.22,1.83-7.98,2.38c-1.2-3.88-3-7.44-5.53-10.78
		C31.33,5.24,33.82,6.21,36.13,7.65z M31.8,32.04c-4.54-0.6-9.06-0.61-13.62,0c-0.94-4.36-0.93-8.68-0.01-13.11
		c4.56,0.7,9.08,0.7,13.62,0C32.74,23.34,32.73,27.66,31.8,32.04z M24.99,5.23c2.73,3.19,4.73,6.75,6.03,10.77
		c-4.03,0.52-8.01,0.51-12.06,0C20.26,11.98,22.26,8.44,24.99,5.23z M7.95,13.15c3.42-4.54,7.85-7.33,13.34-8.38
		c-1.04,1.73-2.16,3.41-3.07,5.2c-0.91,1.77-1.6,3.65-2.41,5.54C13.21,15,10.58,14.2,7.95,13.15z M7.95,37.83
		c2.61-1.05,5.24-1.84,7.99-2.39c1.2,3.89,3.01,7.45,5.42,10.72C15.81,45.16,11.38,42.37,7.95,37.83z M25,45.75
		c-2.74-3.21-4.73-6.75-6.01-10.7c1.4-0.58,9.79-0.61,12.02-0.04C29.73,38.98,27.73,42.53,25,45.75z M28.64,46.16
		c2.4-3.28,4.21-6.82,5.41-10.72c2.75,0.54,5.38,1.34,8,2.38C38.62,42.36,34.19,45.16,28.64,46.16z M43.73,35.09
		c-2.97-0.91-5.91-1.81-8.9-2.73c0.43-2.18,0.69-4.51,0.69-6.86c0-2.35-0.26-4.68-0.69-6.87c2.97-0.92,5.89-1.82,8.89-2.74
		c1.22,2.31,1.98,4.88,2.24,7.6C46.35,27.6,45.56,31.49,43.73,35.09z"/>
	<path class="st0" d="M0.93,24.82c0,0.73,0,1.45,0,2.18c0.11,0.77,0.19,1.54,0.32,2.3l2.99-0.41c-0.07-0.45-0.15-0.89-0.2-1.34
		c-0.11-1.07-0.12-2.12-0.07-3.14L0.93,24.82z"/>
</g>
</svg>
