<?xml version="1.0" encoding="utf-8"?>
<!-- Generator: Adobe Illustrator 24.3.0, SVG Export Plug-In . SVG Version: 6.00 Build 0)  -->
<svg version="1.1" id="Layer_1" xmlns="http://www.w3.org/2000/svg" xmlns:xlink="http://www.w3.org/1999/xlink" x="0px" y="0px"
	 viewBox="0 0 50 50" style="enable-background:new 0 0 50 50;" xml:space="preserve">
<style type="text/css">
	.st0{fill:#046EBC;}
	.st1{fill:none;stroke:#046EBC;stroke-width:2.5;stroke-miterlimit:10;}
	.st2{fill-rule:evenodd;clip-rule:evenodd;fill:#046EBC;}
	.st3{fill:#F9F9FA;}
	.st4{fill:#FFFFFF;}
	.st5{fill:#136FB7;}
</style>
<g>
	<g>
		<g>
			<g>
				<path class="st5" d="M17.34,36.44H13c-1.58,0-2.85-1.28-2.85-2.85V5.4c0-1.57,1.28-2.85,2.85-2.85h18.25
					c1.58,0,2.85,1.28,2.85,2.85v3.72h2.55V5.4c0-2.98-2.42-5.4-5.4-5.4H13c-2.98,0-5.4,2.42-5.4,5.4v28.18c0,2.98,2.42,5.4,5.4,5.4
					h4.34V36.44z"/>
			</g>
		</g>
	</g>
</g>
<g>
	<path class="st5" d="M28.03,7.4H16.49c-0.48,0-0.87-0.39-0.87-0.87s0.39-0.87,0.87-0.87h11.54c0.48,0,0.87,0.39,0.87,0.87
		S28.51,7.4,28.03,7.4z"/>
</g>
<g>
	<g>
		<g>
			<path class="st5" d="M37.45,13.26l8.1,8.1V44.3c0,1.57-1.28,2.85-2.85,2.85H24.45c-1.58,0-2.85-1.28-2.85-2.85V16.11
				c0-1.57,1.28-2.85,2.85-2.85H37.45 M37.45,10.71h-13c-2.98,0-5.4,2.42-5.4,5.4V44.3c0,2.98,2.42,5.4,5.4,5.4H42.7
				c2.98,0,5.4-2.42,5.4-5.4V21.36c0-0.68-0.27-1.32-0.75-1.8l-8.1-8.1C38.78,10.98,38.13,10.71,37.45,10.71L37.45,10.71z"/>
		</g>
	</g>
	<g>
		<g>
			<path class="st5" d="M38.43,14.24l5.96,5.96h-3.14c-1.56,0-2.83-1.27-2.83-2.83V14.24 M38.43,11.69c-0.33,0-0.66,0.06-0.98,0.19
				c-0.95,0.39-1.57,1.32-1.57,2.36v3.14c0,2.96,2.41,5.38,5.38,5.38h3.14c1.03,0,1.96-0.62,2.36-1.57
				c0.39-0.95,0.18-2.05-0.55-2.78l-5.96-5.96C39.75,11.95,39.1,11.69,38.43,11.69L38.43,11.69z"/>
		</g>
	</g>
	<g>
		<path class="st5" d="M40.09,26.5H27.07c-0.48,0-0.87-0.39-0.87-0.87s0.39-0.87,0.87-0.87h13.02c0.48,0,0.87,0.39,0.87,0.87
			S40.57,26.5,40.09,26.5z"/>
	</g>
	<g>
		<path class="st5" d="M40.09,31.3H27.07c-0.48,0-0.87-0.39-0.87-0.87c0-0.48,0.39-0.87,0.87-0.87h13.02c0.48,0,0.87,0.39,0.87,0.87
			C40.95,30.91,40.57,31.3,40.09,31.3z"/>
	</g>
	<g>
		<path class="st5" d="M40.09,36.1H27.07c-0.48,0-0.87-0.39-0.87-0.87c0-0.48,0.39-0.87,0.87-0.87h13.02c0.48,0,0.87,0.39,0.87,0.87
			C40.95,35.71,40.57,36.1,40.09,36.1z"/>
	</g>
	<g>
		<path class="st5" d="M40.09,40.9H27.07c-0.48,0-0.87-0.39-0.87-0.87s0.39-0.87,0.87-0.87h13.02c0.48,0,0.87,0.39,0.87,0.87
			S40.57,40.9,40.09,40.9z"/>
	</g>
</g>
</svg>
