<?xml version="1.0" encoding="utf-8"?>
<!-- Generator: Adobe Illustrator 24.3.0, SVG Export Plug-In . SVG Version: 6.00 Build 0)  -->
<svg version="1.1" id="Layer_1" xmlns="http://www.w3.org/2000/svg" xmlns:xlink="http://www.w3.org/1999/xlink" x="0px" y="0px"
	 viewBox="0 0 50 50" style="enable-background:new 0 0 50 50;" xml:space="preserve">
<style type="text/css">
	.st0{fill:#046EBC;}
	.st1{fill:none;stroke:#046EBC;stroke-width:2.5;stroke-miterlimit:10;}
	.st2{fill-rule:evenodd;clip-rule:evenodd;fill:#046EBC;}
	.st3{fill:#F9F9FA;}
	.st4{fill:#FFFFFF;}
	.st5{fill:#136FB7;}
</style>
<g id="Iconly_x2F_Light-Outline_x2F_Setting">
	<g id="Setting" transform="translate(2.000000, 1.000000)">
		<path id="Combined-Shape" class="st2" d="M24.51-1c1.73,0,3.41,0.71,4.61,1.94c1.2,1.24,1.87,2.94,1.81,4.67
			c0,0.39,0.13,0.84,0.36,1.23c0.38,0.65,0.99,1.11,1.71,1.3c0.72,0.18,1.47,0.08,2.11-0.3c3.09-1.76,7.02-0.71,8.78,2.36l1.5,2.6
			c0.04,0.07,0.07,0.14,0.1,0.21c1.6,3.02,0.53,6.82-2.44,8.55c-0.43,0.25-0.78,0.6-1.02,1.02c-0.37,0.65-0.48,1.42-0.29,2.13
			c0.19,0.72,0.65,1.32,1.3,1.7c1.46,0.84,2.56,2.26,2.99,3.9c0.44,1.64,0.2,3.41-0.65,4.88l-1.6,2.67
			c-1.76,3.03-5.69,4.08-8.75,2.31c-0.41-0.23-0.88-0.36-1.35-0.37h-0.01c-0.7,0-1.41,0.3-1.94,0.82c-0.53,0.53-0.82,1.23-0.81,1.98
			c-0.02,3.54-2.9,6.41-6.43,6.41h-3.02c-3.54,0-6.43-2.88-6.43-6.43c0-0.44-0.13-0.89-0.36-1.28c-0.38-0.66-0.99-1.13-1.7-1.32
			c-0.7-0.19-1.47-0.08-2.1,0.28c-1.52,0.84-3.3,1.05-4.93,0.59c-1.63-0.46-3.04-1.58-3.86-3.06l-1.51-2.6
			c-1.76-3.06-0.71-6.98,2.34-8.75C3.8,25.93,4.33,25,4.33,24c0-1-0.54-1.93-1.4-2.43c-3.06-1.78-4.1-5.71-2.34-8.77l1.64-2.69
			c1.74-3.03,5.67-4.09,8.74-2.33c0.42,0.25,0.87,0.37,1.33,0.38c1.5,0,2.76-1.24,2.78-2.77c-0.01-1.68,0.65-3.3,1.86-4.51
			C18.16-0.33,19.77-1,21.48-1H24.51z M24.51,2.62h-3.02c-0.75,0-1.45,0.29-1.98,0.82c-0.53,0.53-0.81,1.23-0.81,1.98
			c-0.05,3.53-2.93,6.37-6.43,6.37c-1.12-0.01-2.2-0.31-3.13-0.87c-1.32-0.75-3.03-0.29-3.8,1.05L3.7,14.65
			c-0.75,1.3-0.29,3.01,1.04,3.79c1.98,1.14,3.21,3.28,3.21,5.56s-1.23,4.42-3.21,5.56c-1.32,0.77-1.78,2.47-1.02,3.8l1.52,2.63
			c0.38,0.68,0.99,1.17,1.7,1.37c0.71,0.2,1.49,0.11,2.14-0.25c0.96-0.56,2.07-0.85,3.19-0.85c0.55,0,1.11,0.07,1.65,0.21
			c1.63,0.44,3.05,1.53,3.89,2.99c0.55,0.92,0.85,1.99,0.86,3.09c0,1.57,1.26,2.83,2.81,2.83h3.02c1.54,0,2.8-1.25,2.81-2.79
			c-0.01-1.7,0.66-3.32,1.87-4.54c1.2-1.2,2.88-1.92,4.56-1.87c1.1,0.03,2.16,0.32,3.09,0.85c1.34,0.77,3.06,0.31,3.84-1.02
			l1.6-2.67c0.36-0.62,0.46-1.39,0.27-2.1c-0.19-0.71-0.66-1.33-1.3-1.69c-1.49-0.86-2.56-2.24-3-3.9c-0.44-1.63-0.2-3.41,0.65-4.87
			c0.55-0.97,1.37-1.78,2.34-2.34c1.31-0.76,1.77-2.48,1.01-3.81c-0.03-0.05-0.06-0.11-0.08-0.17l-1.41-2.45
			c-0.77-1.34-2.48-1.8-3.83-1.04c-1.45,0.86-3.18,1.11-4.84,0.67c-1.66-0.43-3.05-1.48-3.91-2.96c-0.55-0.93-0.86-2.01-0.87-3.1
			c0.02-0.83-0.27-1.57-0.79-2.11C26,2.93,25.26,2.62,24.51,2.62z M23.01,15.83c4.51,0,8.17,3.67,8.17,8.17s-3.67,8.17-8.17,8.17
			s-8.17-3.66-8.17-8.17S18.5,15.83,23.01,15.83z M23.01,19.45c-2.51,0-4.55,2.04-4.55,4.55s2.04,4.55,4.55,4.55
			s4.55-2.04,4.55-4.55S25.52,19.45,23.01,19.45z"/>
	</g>
</g>
</svg>
