<?xml version="1.0" encoding="utf-8"?>
<!-- Generator: Adobe Illustrator 24.3.0, SVG Export Plug-In . SVG Version: 6.00 Build 0)  -->
<svg version="1.1" id="Layer_1" xmlns="http://www.w3.org/2000/svg" xmlns:xlink="http://www.w3.org/1999/xlink" x="0px" y="0px"
	 viewBox="0 0 50 50" style="enable-background:new 0 0 50 50;" xml:space="preserve">
<style type="text/css">
	.st0{fill:#046EBC;}
	.st1{fill:none;stroke:#046EBC;stroke-width:2.5;stroke-miterlimit:10;}
	.st2{fill-rule:evenodd;clip-rule:evenodd;fill:#046EBC;}
	.st3{fill:#F9F9FA;}
	.st4{fill:#FFFFFF;}
	.st5{fill:#136FB7;}
</style>
<g>
	<path class="st0" d="M34.18,32.75c-0.46-0.26-0.79-0.69-0.93-1.2c-0.06-0.23-0.07-0.47-0.05-0.7c-0.87-0.05-1.72-0.18-2.55-0.37
		c-0.07,0.58-0.04,1.17,0.11,1.74c0.31,1.18,1.07,2.16,2.13,2.77c0.45,0.26,0.79,0.7,0.92,1.2c0.14,0.51,0.06,1.05-0.19,1.49
		l-1.14,1.9c-0.55,0.94-1.77,1.27-2.73,0.72c-0.66-0.38-1.42-0.59-2.2-0.61c-1.19-0.03-2.39,0.48-3.24,1.33
		c-0.87,0.87-1.34,2.02-1.33,3.23c-0.01,1.1-0.9,1.98-2,1.98h-2.15c-1.1,0-2-0.89-2-2.01c-0.01-0.78-0.22-1.54-0.61-2.19
		c-0.6-1.04-1.6-1.82-2.76-2.13c-0.38-0.1-0.78-0.15-1.17-0.15c-0.8,0-1.59,0.21-2.27,0.61c-0.46,0.26-1.02,0.32-1.52,0.18
		c-0.51-0.14-0.94-0.49-1.21-0.97L6.24,37.7c-0.55-0.94-0.22-2.15,0.72-2.7c1.41-0.81,2.28-2.33,2.28-3.95
		c0-1.62-0.88-3.14-2.28-3.95c-0.95-0.55-1.27-1.77-0.74-2.69l1.16-1.91c0.55-0.95,1.77-1.28,2.7-0.75c0.67,0.4,1.43,0.61,2.23,0.62
		c2.48,0,4.53-2.02,4.56-4.52c0-0.53,0.2-1.03,0.57-1.41c0.38-0.37,0.87-0.58,1.4-0.58h0.23c0-0.88,0.09-1.73,0.24-2.57h-0.46
		c-1.22,0-2.36,0.47-3.23,1.34c-0.86,0.87-1.33,2.01-1.32,3.21c-0.02,1.08-0.91,1.96-1.98,1.96c-0.33,0-0.65-0.09-0.95-0.27
		c-2.18-1.25-4.97-0.49-6.21,1.66l-1.16,1.91c-1.25,2.17-0.51,4.97,1.66,6.23c0.62,0.35,1,1.02,1,1.73c0,0.71-0.38,1.37-1,1.73
		c-2.17,1.25-2.92,4.04-1.66,6.21l1.07,1.85c0.59,1.05,1.59,1.85,2.74,2.18c1.16,0.33,2.43,0.18,3.5-0.42c0.45-0.26,1-0.33,1.49-0.2
		c0.5,0.13,0.94,0.47,1.21,0.94c0.17,0.28,0.26,0.6,0.26,0.91c0,2.52,2.05,4.56,4.57,4.56H21c2.51,0,4.55-2.04,4.57-4.55
		c0-0.53,0.2-1.03,0.58-1.41c0.37-0.37,0.88-0.58,1.37-0.58h0.01c0.33,0.01,0.67,0.1,0.96,0.27c2.17,1.25,4.96,0.51,6.22-1.64
		l1.14-1.9c0.61-1.04,0.77-2.3,0.46-3.46C36,34.36,35.22,33.35,34.18,32.75z"/>
	<path class="st0" d="M23.49,26.49c-0.98-0.77-2.21-1.25-3.55-1.25c-3.2,0-5.8,2.61-5.8,5.81c0,3.2,2.6,5.8,5.8,5.8
		c3.2,0,5.8-2.6,5.8-5.8c0-1.51-0.6-2.88-1.55-3.92C23.95,26.92,23.71,26.71,23.49,26.49z M19.94,34.28c-1.78,0-3.23-1.45-3.23-3.23
		c0-1.78,1.45-3.23,3.23-3.23c1.78,0,3.23,1.45,3.23,3.23C23.17,32.83,21.72,34.28,19.94,34.28z"/>
</g>
<g id="Setting_2_" transform="translate(2.000000, 1.000000)">
	<g id="Combined-Shape_2_">
		<path class="st2" d="M34.97-0.04c0.95,0.16,1.82,0.7,2.37,1.5c0.55,0.8,0.76,1.8,0.57,2.74c-0.03,0.21,0,0.47,0.09,0.71
			c0.15,0.4,0.44,0.7,0.82,0.87c0.38,0.16,0.81,0.18,1.19,0.03c1.87-0.69,3.94,0.25,4.63,2.11l0.59,1.58
			c0.01,0.04,0.03,0.08,0.04,0.12c0.6,1.81-0.33,3.81-2.13,4.5c-0.26,0.1-0.49,0.26-0.66,0.47c-0.27,0.32-0.39,0.74-0.36,1.15
			c0.04,0.42,0.24,0.79,0.56,1.06c0.73,0.6,1.2,1.48,1.29,2.43c0.09,0.94-0.2,1.9-0.81,2.63l-1.13,1.33
			c-1.25,1.51-3.52,1.73-5.05,0.47c-0.2-0.17-0.45-0.28-0.71-0.33l-0.01,0c-0.39-0.06-0.81,0.03-1.14,0.27
			c-0.34,0.24-0.57,0.61-0.63,1.02c-0.34,1.96-2.19,3.27-4.14,2.95L28.7,27.3c-1.96-0.33-3.28-2.18-2.96-4.14
			c0.04-0.24,0.01-0.5-0.08-0.74c-0.15-0.4-0.44-0.72-0.82-0.89c-0.37-0.17-0.8-0.18-1.19-0.04c-0.91,0.33-1.92,0.28-2.78-0.13
			c-0.86-0.4-1.53-1.15-1.85-2.05l-0.59-1.57c-0.69-1.85,0.25-3.92,2.1-4.61c0.52-0.2,0.91-0.66,1-1.21
			c0.09-0.55-0.12-1.12-0.55-1.47c-1.52-1.26-1.74-3.53-0.49-5.06l1.15-1.33c1.24-1.51,3.51-1.74,5.04-0.48
			c0.21,0.18,0.45,0.29,0.7,0.33c0.83,0.14,1.64-0.43,1.79-1.27c0.15-0.93,0.66-1.76,1.44-2.32c0.78-0.56,1.73-0.78,2.68-0.62
			L34.97-0.04z M34.63,1.96l-1.67-0.28c-0.41-0.07-0.83,0.03-1.17,0.27c-0.34,0.24-0.56,0.6-0.63,1.02
			c-0.35,1.94-2.21,3.25-4.13,2.93c-0.62-0.11-1.18-0.38-1.65-0.77c-0.66-0.53-1.65-0.44-2.2,0.23l-1.15,1.33
			c-0.53,0.65-0.44,1.64,0.23,2.19c0.99,0.81,1.47,2.1,1.26,3.37s-1.09,2.33-2.29,2.78c-0.8,0.3-1.21,1.2-0.91,2.01l0.6,1.59
			c0.15,0.41,0.44,0.74,0.81,0.91c0.37,0.17,0.81,0.2,1.21,0.06c0.58-0.22,1.22-0.28,1.84-0.18c0.31,0.05,0.6,0.14,0.89,0.27
			c0.86,0.39,1.54,1.12,1.87,2.01c0.22,0.56,0.28,1.18,0.19,1.78c-0.14,0.87,0.44,1.68,1.29,1.82l1.67,0.28
			c0.85,0.14,1.66-0.43,1.81-1.28c0.15-0.94,0.67-1.77,1.45-2.34c0.77-0.55,1.77-0.8,2.69-0.62c0.61,0.12,1.16,0.38,1.63,0.76
			c0.67,0.55,1.66,0.45,2.21-0.21l1.13-1.33c0.25-0.31,0.38-0.72,0.34-1.13c-0.04-0.41-0.24-0.79-0.56-1.05
			c-0.74-0.61-1.2-1.47-1.3-2.43c-0.09-0.94,0.2-1.9,0.81-2.63c0.4-0.48,0.92-0.86,1.51-1.08c0.79-0.3,1.2-1.2,0.91-2.01
			c-0.01-0.03-0.02-0.07-0.03-0.1l-0.56-1.48c-0.3-0.81-1.21-1.22-2.02-0.92C39.85,8.06,38.87,8.04,38,7.64
			c-0.88-0.39-1.55-1.1-1.89-1.99c-0.22-0.56-0.29-1.19-0.19-1.79c0.09-0.45,0-0.89-0.24-1.24C35.43,2.27,35.05,2.03,34.63,1.96z"/>
	</g>
</g>
<g>
	<path class="st0" d="M31.85,17.89l-1.8-1.8c-0.48-0.48-0.48-1.26,0-1.74l0,0c0.48-0.48,1.26-0.48,1.74,0L32,14.57
		c0.45,0.45,1.17,0.48,1.65,0.08l2.66-2.21c0.52-0.43,1.29-0.36,1.73,0.16l0,0c0.43,0.52,0.36,1.3-0.16,1.73l-4.38,3.64
		C33.01,18.37,32.3,18.34,31.85,17.89z"/>
</g>
</svg>
