<?xml version="1.0" encoding="utf-8"?>
<!-- Generator: Adobe Illustrator 24.3.0, SVG Export Plug-In . SVG Version: 6.00 Build 0)  -->
<svg version="1.1" id="Layer_1" xmlns="http://www.w3.org/2000/svg" xmlns:xlink="http://www.w3.org/1999/xlink" x="0px" y="0px"
	 viewBox="0 0 50 50" style="enable-background:new 0 0 50 50;" xml:space="preserve">
<style type="text/css">
	.st0{fill:#046EBC;}
	.st1{fill:none;stroke:#046EBC;stroke-width:2.5;stroke-miterlimit:10;}
	.st2{fill-rule:evenodd;clip-rule:evenodd;fill:#046EBC;}
	.st3{fill:#F9F9FA;}
	.st4{fill:#FFFFFF;}
	.st5{fill:#136FB7;}
</style>
<path class="st0" d="M40.72,41.68c-0.94,0.33-1.92,0.52-2.93,0.52c-0.64,0-1.27-0.09-1.89-0.22c0.45,0.85,0.81,1.75,1.07,2.7H11.16
	c1.54-5.72,6.81-9.91,12.91-9.91c1.47,0,2.89,0.25,4.23,0.7c-0.94-1.87-1.56-4.04-1.77-6.38c-0.86,0.23-1.75,0.36-2.68,0.36
	c-5.77,0-10.47-4.7-10.47-10.47c0-5.77,4.7-10.46,10.47-10.46c3.91,0,7.32,2.16,9.12,5.34c1.33-0.82,2.8-1.31,4.36-1.4
	C34.88,7.46,29.76,4,23.83,4C15.57,4,8.85,10.72,8.85,18.98c0,5.57,3.06,10.43,7.58,13.01c-5.62,2.69-9.69,8.22-10.2,14.76
	L6.04,49.2h36.04l-0.19-2.43C41.76,44.98,41.35,43.28,40.72,41.68z"/>
<g>
	<path class="st0" d="M37,14.34h2.51v2.07c2.03,0.19,3.79,0.96,5.27,2.32L42,22.19c-1.01-0.85-1.86-1.38-2.54-1.59v4.37
		c3.84,1.17,5.77,3.34,5.77,6.51c0,1.6-0.49,2.94-1.47,4.03c-0.98,1.09-2.43,1.81-4.33,2.15v2.63h-2.47v-2.6h-0.41
		c-0.93,0-2.01-0.26-3.25-0.79s-2.2-1.19-2.89-2.01l2.65-3.32c1.12,1.16,2.42,1.89,3.91,2.18v-5.09c-1.84-0.46-3.24-1.27-4.2-2.42
		c-0.96-1.15-1.44-2.48-1.44-4c0-1.6,0.46-2.96,1.4-4.06c0.93-1.11,2.36-1.7,4.28-1.79V14.34z M36.96,24.2v-3.72
		c-0.94,0.32-1.41,0.92-1.41,1.8C35.55,23.22,36.03,23.87,36.96,24.2z M39.46,29.56v3.94c1.04-0.26,1.56-0.91,1.56-1.95
		C41.02,30.59,40.5,29.93,39.46,29.56z"/>
</g>
</svg>
