<?xml version="1.0" encoding="utf-8"?>
<!-- Generator: Adobe Illustrator 24.3.0, SVG Export Plug-In . SVG Version: 6.00 Build 0)  -->
<svg version="1.1" id="Layer_1" xmlns="http://www.w3.org/2000/svg" xmlns:xlink="http://www.w3.org/1999/xlink" x="0px" y="0px"
	 viewBox="0 0 50 50" style="enable-background:new 0 0 50 50;" xml:space="preserve">
<style type="text/css">
	.st0{fill:#046EBC;}
	.st1{fill:none;stroke:#046EBC;stroke-width:2.5;stroke-miterlimit:10;}
	.st2{fill-rule:evenodd;clip-rule:evenodd;fill:#046EBC;}
	.st3{fill:#F9F9FA;}
	.st4{fill:#FFFFFF;}
	.st5{fill:#136FB7;}
</style>
<g>
	<path class="st0" d="M10.62,50H5.39c-2.38,0-4.32-1.94-4.32-4.32V4.32C1.07,1.94,3.01,0,5.39,0h5.22c2.38,0,4.32,1.94,4.32,4.32
		v41.35C14.94,48.06,13,50,10.62,50z M5.39,3.39c-0.52,0-0.94,0.42-0.94,0.94v41.35c0,0.52,0.42,0.94,0.94,0.94h5.22
		c0.52,0,0.94-0.42,0.94-0.94V4.32c0-0.52-0.42-0.94-0.94-0.94H5.39z"/>
</g>
<g>
	<path class="st0" d="M27.39,50h-5.22c-2.38,0-4.32-1.94-4.32-4.32V11c0-2.38,1.94-4.32,4.32-4.32h5.22c2.39,0,4.32,1.94,4.32,4.32
		v34.68C31.72,48.06,29.78,50,27.39,50z M22.17,10.06c-0.52,0-0.94,0.42-0.94,0.94v34.68c0,0.52,0.42,0.94,0.94,0.94h5.22
		c0.52,0,0.94-0.42,0.94-0.94V11c0-0.52-0.42-0.94-0.94-0.94H22.17z"/>
</g>
<g>
	<path class="st0" d="M44.17,50h-5.22c-2.39,0-4.32-1.94-4.32-4.32V18.19c0-2.38,1.94-4.32,4.32-4.32h5.22
		c2.39,0,4.32,1.94,4.32,4.32v27.49C48.49,48.06,46.55,50,44.17,50z M38.95,17.25c-0.52,0-0.94,0.42-0.94,0.94v27.49
		c0,0.52,0.42,0.94,0.94,0.94h5.22c0.52,0,0.94-0.42,0.94-0.94V18.19c0-0.52-0.42-0.94-0.94-0.94H38.95z"/>
</g>
<g>
	<g>
		
			<rect x="44.55" y="33.78" transform="matrix(6.123234e-17 -1 1 6.123234e-17 8.4792 82.3808)" class="st4" width="1.76" height="6.35"/>
	</g>
</g>
<g>
	<g>
		
			<rect x="44.81" y="27.54" transform="matrix(6.123234e-17 -1 1 6.123234e-17 14.981 76.4069)" class="st4" width="1.76" height="6.35"/>
	</g>
</g>
<g>
	
		<rect x="44.55" y="32.13" transform="matrix(6.123234e-17 -1 1 6.123234e-17 12.9568 80.6205)" class="st5" width="4.48" height="3.41"/>
</g>
</svg>
