<?xml version="1.0" encoding="utf-8"?>
<!-- Generator: Adobe Illustrator 24.3.0, SVG Export Plug-In . SVG Version: 6.00 Build 0)  -->
<svg version="1.1" id="Layer_1" xmlns="http://www.w3.org/2000/svg" xmlns:xlink="http://www.w3.org/1999/xlink" x="0px" y="0px"
	 viewBox="0 0 50 50" style="enable-background:new 0 0 50 50;" xml:space="preserve">
<style type="text/css">
	.st0{fill:#046EBC;}
	.st1{fill:none;stroke:#046EBC;stroke-width:2.5;stroke-miterlimit:10;}
	.st2{fill-rule:evenodd;clip-rule:evenodd;fill:#046EBC;}
	.st3{fill:#F9F9FA;}
	.st4{fill:#FFFFFF;}
	.st5{fill:#136FB7;}
</style>
<g>
	<path class="st0" d="M18.71,24.01H6.29c-2.8,0-5.08-2.28-5.08-5.08V6.5c0-2.8,2.28-5.08,5.08-5.08h12.43c2.8,0,5.08,2.28,5.08,5.08
		v12.43C23.79,21.73,21.51,24.01,18.71,24.01z M6.29,3.92c-1.42,0-2.58,1.16-2.58,2.58v12.43c0,1.42,1.16,2.58,2.58,2.58h12.43
		c1.42,0,2.58-1.16,2.58-2.58V6.5c0-1.42-1.16-2.58-2.58-2.58H6.29z"/>
</g>
<g>
	<path class="st0" d="M43.71,24.01H31.29c-2.8,0-5.08-2.28-5.08-5.08V6.5c0-2.8,2.28-5.08,5.08-5.08h12.43
		c2.8,0,5.08,2.28,5.08,5.08v12.43C48.79,21.73,46.51,24.01,43.71,24.01z M31.29,3.92c-1.42,0-2.58,1.16-2.58,2.58v12.43
		c0,1.42,1.16,2.58,2.58,2.58h12.43c1.42,0,2.58-1.16,2.58-2.58V6.5c0-1.42-1.16-2.58-2.58-2.58H31.29z"/>
</g>
<g>
	<path class="st0" d="M18.71,48.58H6.29c-2.8,0-5.08-2.28-5.08-5.08V31.07c0-2.8,2.28-5.08,5.08-5.08h12.43
		c2.8,0,5.08,2.28,5.08,5.08V43.5C23.79,46.3,21.51,48.58,18.71,48.58z M6.29,28.49c-1.42,0-2.58,1.16-2.58,2.58V43.5
		c0,1.42,1.16,2.58,2.58,2.58h12.43c1.42,0,2.58-1.16,2.58-2.58V31.07c0-1.42-1.16-2.58-2.58-2.58H6.29z"/>
</g>
<g>
	<rect x="36.87" y="46.08" class="st0" width="4.48" height="2.5"/>
	<path class="st0" d="M43.71,25.99H31.29c-2.8,0-5.08,2.28-5.08,5.08V43.5c0,2.8,2.28,5.08,5.08,5.08h3.82v-2.5h-3.82
		c-1.42,0-2.58-1.16-2.58-2.58V31.07c0-1.42,1.16-2.58,2.58-2.58h12.43c1.42,0,2.58,1.16,2.58,2.58V43.5c0,1.42-1.16,2.58-2.58,2.58
		h-0.61v2.5h0.61c2.8,0,5.08-2.28,5.08-5.08V31.07C48.79,28.27,46.51,25.99,43.71,25.99z"/>
</g>
</svg>
