<?xml version="1.0" encoding="utf-8"?>
<!-- Generator: Adobe Illustrator 24.3.0, SVG Export Plug-In . SVG Version: 6.00 Build 0)  -->
<svg version="1.1" id="Layer_1" xmlns="http://www.w3.org/2000/svg" xmlns:xlink="http://www.w3.org/1999/xlink" x="0px" y="0px"
	 viewBox="0 0 50 50" style="enable-background:new 0 0 50 50;" xml:space="preserve">
<style type="text/css">
	.st0{fill:#046EBC;}
	.st1{fill:none;stroke:#046EBC;stroke-width:2.5;stroke-miterlimit:10;}
	.st2{fill-rule:evenodd;clip-rule:evenodd;fill:#046EBC;}
	.st3{fill:#F9F9FA;}
	.st4{fill:#FFFFFF;}
	.st5{fill:#136FB7;}
</style>
<g>
	<path class="st3" d="M26.38,47.4H3.01V10.4c0-1.76,1.43-3.18,3.18-3.18h17c1.76,0,3.18,1.43,3.18,3.18V47.4z"/>
	<path class="st0" d="M27.63,48.65H1.75V10.4c0-2.45,1.99-4.43,4.43-4.43h17c2.45,0,4.43,1.99,4.43,4.43V48.65z M4.25,46.15h20.87
		V10.4c0-1.07-0.87-1.93-1.93-1.93h-17c-1.07,0-1.93,0.87-1.93,1.93V46.15z"/>
</g>
<g>
	<path class="st3" d="M12.51,17.16H7.68c-0.34,0-0.62-0.28-0.62-0.62v-4.83c0-0.34,0.28-0.62,0.62-0.62h4.83
		c0.34,0,0.62,0.28,0.62,0.62v4.83C13.13,16.88,12.85,17.16,12.51,17.16z"/>
	<path class="st0" d="M12.51,18.41H7.68c-1.03,0-1.87-0.84-1.87-1.87v-4.83c0-1.03,0.84-1.87,1.87-1.87h4.83
		c1.03,0,1.87,0.84,1.87,1.87v4.83C14.38,17.57,13.54,18.41,12.51,18.41z M8.31,15.91h3.56v-3.56H8.31V15.91z"/>
</g>
<g>
	<path class="st3" d="M21.7,17.16h-4.83c-0.34,0-0.62-0.28-0.62-0.62v-4.83c0-0.34,0.28-0.62,0.62-0.62h4.83
		c0.34,0,0.62,0.28,0.62,0.62v4.83C22.32,16.88,22.04,17.16,21.7,17.16z"/>
	<path class="st0" d="M21.7,18.41h-4.83c-1.03,0-1.87-0.84-1.87-1.87v-4.83c0-1.03,0.84-1.87,1.87-1.87h4.83
		c1.03,0,1.87,0.84,1.87,1.87v4.83C23.57,17.57,22.73,18.41,21.7,18.41z M17.51,15.91h3.56v-3.56h-3.56V15.91z"/>
</g>
<g>
	<path class="st3" d="M12.51,26.8H7.68c-0.34,0-0.62-0.28-0.62-0.62v-4.83c0-0.34,0.28-0.62,0.62-0.62h4.83
		c0.34,0,0.62,0.28,0.62,0.62v4.83C13.13,26.53,12.85,26.8,12.51,26.8z"/>
	<path class="st0" d="M12.51,28.05H7.68c-1.03,0-1.87-0.84-1.87-1.87v-4.83c0-1.03,0.84-1.87,1.87-1.87h4.83
		c1.03,0,1.87,0.84,1.87,1.87v4.83C14.38,27.22,13.54,28.05,12.51,28.05z M8.31,25.55h3.56v-3.56H8.31V25.55z"/>
</g>
<g>
	<path class="st3" d="M21.7,26.8h-4.83c-0.34,0-0.62-0.28-0.62-0.62v-4.83c0-0.34,0.28-0.62,0.62-0.62h4.83
		c0.34,0,0.62,0.28,0.62,0.62v4.83C22.32,26.53,22.04,26.8,21.7,26.8z"/>
	<path class="st0" d="M21.7,28.05h-4.83c-1.03,0-1.87-0.84-1.87-1.87v-4.83c0-1.03,0.84-1.87,1.87-1.87h4.83
		c1.03,0,1.87,0.84,1.87,1.87v4.83C23.57,27.22,22.73,28.05,21.7,28.05z M17.51,25.55h3.56v-3.56h-3.56V25.55z"/>
</g>
<g>
	<path class="st3" d="M42.28,33.43h-15.9V6.54c0-1.76,1.43-3.18,3.18-3.18h9.53c1.76,0,3.18,1.43,3.18,3.18V33.43z"/>
	<path class="st0" d="M43.53,34.67h-18.4V6.54c0-2.44,1.99-4.43,4.43-4.43h9.53c2.44,0,4.43,1.99,4.43,4.43V34.67z M27.63,32.17
		h13.4V6.54c0-1.07-0.87-1.93-1.93-1.93h-9.53c-1.07,0-1.93,0.87-1.93,1.93V32.17z"/>
</g>
<rect x="38.5" y="14.71" class="st4" width="7.22" height="3.68"/>
<g>
	<path class="st3" d="M45.72,47.4H26.38V20.52c0-1.76,1.43-3.18,3.18-3.18h12.98c1.76,0,3.18,1.43,3.18,3.18V47.4z"/>
	<path class="st0" d="M46.97,48.65H25.13V20.52c0-2.44,1.99-4.43,4.43-4.43h12.98c2.45,0,4.43,1.99,4.43,4.43V48.65z M27.63,46.15
		h16.85V20.52c0-1.07-0.87-1.93-1.93-1.93H29.56c-1.07,0-1.93,0.87-1.93,1.93V46.15z"/>
</g>
<g>
	<path class="st3" d="M38.47,28.25h-4.83c-0.34,0-0.62-0.28-0.62-0.62V22.8c0-0.34,0.28-0.62,0.62-0.62h4.83
		c0.34,0,0.62,0.28,0.62,0.62v4.83C39.08,27.97,38.81,28.25,38.47,28.25z"/>
	<path class="st0" d="M38.47,29.5h-4.83c-1.03,0-1.87-0.84-1.87-1.87V22.8c0-1.03,0.84-1.87,1.87-1.87h4.83
		c1.03,0,1.87,0.84,1.87,1.87v4.83C40.33,28.66,39.5,29.5,38.47,29.5z M34.27,27h3.56v-3.56h-3.56V27z"/>
</g>
</svg>
