<?xml version="1.0" encoding="utf-8"?>
<!-- Generator: Adobe Illustrator 24.3.0, SVG Export Plug-In . SVG Version: 6.00 Build 0)  -->
<svg version="1.1" id="Layer_1" xmlns="http://www.w3.org/2000/svg" xmlns:xlink="http://www.w3.org/1999/xlink" x="0px" y="0px"
	 viewBox="0 0 50 50" style="enable-background:new 0 0 50 50;" xml:space="preserve">
<style type="text/css">
	.st0{fill:#046EBC;}
	.st1{fill:none;stroke:#046EBC;stroke-width:2.5;stroke-miterlimit:10;}
	.st2{fill-rule:evenodd;clip-rule:evenodd;fill:#046EBC;}
	.st3{fill:#F9F9FA;}
	.st4{fill:#FFFFFF;}
	.st5{fill:#136FB7;}
</style>
<g>
	<path class="st0" d="M36.93,25.11c0-3.56,2.9-6.46,6.46-6.46s6.46,2.9,6.46,6.46s-2.9,6.46-6.46,6.46S36.93,28.68,36.93,25.11z
		 M47.36,25.11c0-2.18-1.78-3.96-3.96-3.96c-2.18,0-3.96,1.78-3.96,3.96s1.78,3.96,3.96,3.96C45.58,29.07,47.36,27.3,47.36,25.11z"
		/>
</g>
<g>
	<path class="st0" d="M18.57,25.11c0-3.38,2.64-6.23,6.07-6.45c3.56-0.22,6.63,2.5,6.84,6.05c0.11,1.72-0.47,3.38-1.61,4.67
		c-1.14,1.29-2.72,2.06-4.44,2.17c-3.56,0.22-6.63-2.5-6.84-6.05C18.57,25.38,18.57,25.24,18.57,25.11z M28.99,25.12
		c0-0.08,0-0.16-0.01-0.25c-0.13-2.18-2.02-3.84-4.2-3.71c-2.18,0.13-3.87,1.98-3.71,4.2c0.06,1.06,0.54,2.02,1.33,2.72
		c0.79,0.7,1.81,1.05,2.87,0.99C27.37,28.94,28.99,27.19,28.99,25.12z"/>
</g>
<g>
	<path class="st0" d="M-0.03,25.11c0-1.58,0.57-3.08,1.62-4.27c1.14-1.29,2.72-2.06,4.44-2.17s3.38,0.47,4.67,1.61
		c1.29,1.14,2.06,2.72,2.17,4.45l0,0c0.1,1.72-0.47,3.38-1.61,4.67s-2.72,2.06-4.45,2.17s-3.38-0.47-4.67-1.61
		c-1.29-1.14-2.06-2.72-2.17-4.45C-0.03,25.37-0.03,25.24-0.03,25.11z M10.39,25.12c0-0.08,0-0.16-0.01-0.25l0,0
		c-0.06-1.06-0.54-2.02-1.33-2.72c-0.79-0.7-1.81-1.05-2.87-0.99c-2.18,0.13-3.87,2.05-3.71,4.2c0.06,1.06,0.54,2.02,1.33,2.72
		c0.79,0.7,1.81,1.05,2.87,0.99C7.73,29,8.7,28.53,9.4,27.74C10.04,27.01,10.39,26.09,10.39,25.12z"/>
</g>
<path class="st0" d="M32.19,25.2c0,0.4-0.04,0.78-0.1,1.16h4.27c-0.07-0.41-0.11-0.82-0.11-1.25s0.04-0.84,0.11-1.25h-4.3
	C32.15,24.3,32.19,24.74,32.19,25.2z"/>
<path class="st0" d="M13.57,25.2c0,0.4-0.04,0.78-0.1,1.16h4.27c-0.07-0.41-0.11-0.82-0.11-1.25s0.04-0.84,0.11-1.25h-4.3
	C13.52,24.3,13.57,24.74,13.57,25.2z"/>
</svg>
