<?xml version="1.0" encoding="utf-8"?>
<!-- Generator: Adobe Illustrator 24.3.0, SVG Export Plug-In . SVG Version: 6.00 Build 0)  -->
<svg version="1.1" id="Layer_1" xmlns="http://www.w3.org/2000/svg" xmlns:xlink="http://www.w3.org/1999/xlink" x="0px" y="0px"
	 viewBox="0 0 50 50" style="enable-background:new 0 0 50 50;" xml:space="preserve">
<style type="text/css">
	.st0{fill:#046EBC;}
	.st1{fill:none;stroke:#046EBC;stroke-width:2.5;stroke-miterlimit:10;}
	.st2{fill-rule:evenodd;clip-rule:evenodd;fill:#046EBC;}
	.st3{fill:#F9F9FA;}
	.st4{fill:#FFFFFF;}
	.st5{fill:#136FB7;}
</style>
<g>
	<rect x="10.04" y="33.92" class="st0" width="4.48" height="2.99"/>
	<path class="st0" d="M8.28,33.92H6.12c-1.72,0-3.11-1.39-3.11-3.11v-4.6c0-0.83-0.67-1.49-1.49-1.49c-0.83,0-1.49,0.67-1.49,1.49
		v4.6c0,3.37,2.73,6.1,6.1,6.1h2.16V33.92z"/>
	<path class="st0" d="M49.06,33.53l-11.69-8.26c-0.67-0.48-1.61-0.32-2.08,0.36v0c-0.48,0.67-0.32,1.61,0.36,2.08l10.75,7.6
		c0.03,0.02,0.03,0.06,0,0.08l-7.98,5.63l2.09-3.8c0.38-0.69,0.37-1.52-0.04-2.2c-0.4-0.68-1.12-1.09-1.92-1.09H16.27v2.99h20.92
		c0.04,0,0.06,0.04,0.04,0.07l-2.94,5.34c-0.5,0.9-0.44,2.08,0.29,2.8c0.78,0.77,1.97,0.87,2.86,0.24l11.61-8.2
		c0.59-0.42,0.94-1.1,0.94-1.82S49.65,33.95,49.06,33.53z"/>
</g>
<g>
	<rect x="34.81" y="15.05" class="st0" width="4.48" height="2.99"/>
	<path class="st0" d="M14.37,24.25l-10.75-7.6c-0.03-0.02-0.03-0.06,0-0.08l7.98-5.63l-2.09,3.8c-0.38,0.69-0.37,1.52,0.04,2.2
		c0.4,0.68,1.12,1.09,1.92,1.09h21.6v-2.99H12.83c-0.04,0-0.06-0.04-0.04-0.07l2.94-5.34c0.5-0.9,0.44-2.08-0.29-2.8
		c-0.78-0.77-1.97-0.87-2.86-0.24l-11.61,8.2c-0.59,0.42-0.94,1.1-0.94,1.82s0.35,1.4,0.94,1.82l11.69,8.26
		c0.67,0.48,1.61,0.32,2.08-0.36C15.2,25.66,15.04,24.73,14.37,24.25z"/>
	<path class="st0" d="M43.9,15.05h-2.86v2.99h2.86c1.72,0,3.11,1.39,3.11,3.11v4.6c0,0.83,0.67,1.49,1.49,1.49
		c0.83,0,1.49-0.67,1.49-1.49v-4.6C50,17.78,47.27,15.05,43.9,15.05z"/>
</g>
</svg>
